<?xml version="1.0" standalone="no"?>
<!DOCTYPE svg PUBLIC "-//W3C//DTD SVG 20010904//EN"
 "http://www.w3.org/TR/2001/REC-SVG-20010904/DTD/svg10.dtd">
<svg version="1.0" xmlns="http://www.w3.org/2000/svg"
 width="24.000000pt" height="24.000000pt" viewBox="0 0 24.000000 24.000000"
 preserveAspectRatio="xMidYMid meet">

<g transform="translate(0.000000,24.000000) scale(0.100000,-0.100000)"
fill="#000000" stroke="none">
<path d="M70 165 c-59 -59 -72 -77 -62 -87 7 -7 22 -13 35 -13 16 0 22 -6 22
-22 0 -13 6 -28 13 -35 10 -10 28 3 89 65 62 61 75 79 65 89 -7 7 -22 13 -35
13 -15 0 -22 6 -22 20 -1 22 -12 45 -23 45 -4 0 -41 -34 -82 -75z m85 36 c-8
-25 21 -54 46 -46 10 4 19 3 19 -1 0 -14 -33 -44 -48 -44 -9 0 -12 -3 -8 -7 7
-7 -62 -83 -77 -83 -4 0 -6 9 -2 19 8 25 -21 54 -46 46 -10 -4 -19 -2 -19 2 0
15 76 84 83 77 4 -4 7 -1 7 6 0 16 29 50 42 50 5 0 7 -9 3 -19z"/>
<path d="M120 156 c0 -11 30 -39 36 -34 2 3 -5 13 -16 23 -11 10 -20 15 -20
11z"/>
</g>
</svg>
